<svg xmlns="http://www.w3.org/2000/svg" viewBox="0 0 100 100" id="PotionBottle">
  <path fill="#fd878e" d="M57.6,8.3l-0.5,9H50.2a1.4,1.4,0,0,0,.5-1.1,1.4,1.4,0,1,0-2.9,0,1.4,1.4,0,0,0,.5,1.1H40.1l-2-7.2a1.3,1.3,0,0,1,1.1-1.6h1.4A7.1,7.1,0,0,0,47,12.6h0.7a7.1,7.1,0,0,0,6.2-5.4l2.4-.2h0.5l0.5,0.3A1.2,1.2,0,0,1,57.6,8.3Z" class="colorfab677 svgShape"></path>
  <path fill="#fd878e" d="M51.8,7.3a5.2,5.2,0,0,1-9.3.9Z" class="colorfab677 svgShape"></path>
  <path fill="#ff000f" d="M65.4,60.7c0,1.2-.8,2.1-2.4,2.6a11,11,0,0,1-7.6-.4,23.2,23.2,0,0,1-6-4.2A12.5,12.5,0,0,1,57.8,55a8,8,0,0,1,6.1,2.5A4.8,4.8,0,0,1,65.4,60.7Z" class="colorfff100 svgShape"></path>
  <path fill="#ff000f" d="M63.6,65.1a11.7,11.7,0,0,1-3.8.6,13.9,13.9,0,0,1-5.1-1A26,26,0,0,1,47.9,60c-3.3-2.8-6.4-5.5-10.4-5a7.2,7.2,0,0,0-6.2,5.3V80.8A6.8,6.8,0,0,0,38,87.5H58.6a6.8,6.8,0,0,0,6.8-6.8V64.2A7.1,7.1,0,0,1,63.6,65.1Z" class="colorfff100 svgShape"></path>
  <path d="M94 93.1H88A1 1 0 1 0 88 95h6A1 1 0 1 0 94 93.1zM84 93.1H82.1a1 1 0 1 0 0 1.9H84A1 1 0 1 0 84 93.1z" fill="#000000" class="color000000 svgShape"></path>
  <path d="M77.9,93.1H72.2a6.2,6.2,0,0,0,1.7-4.3V48.8a8.7,8.7,0,0,0-8.7-8.7H61.6V33.3h1.5a5.6,5.6,0,0,0,5.6-5.6V22.8a5.6,5.6,0,0,0-5.6-5.6H60.4L61,8.4A3.2,3.2,0,0,0,57.5,5L42.4,6.4h0l-2,.2a3.2,3.2,0,0,0-2.8,4l1.9,6.6H37a5.6,5.6,0,0,0-5.6,5.6v4.9A5.6,5.6,0,0,0,37,33.3h1.5v6.9H34.8a8.7,8.7,0,0,0-8.7,8.7V88.8a6.2,6.2,0,0,0,1.7,4.3H14.5a1,1,0,1,0,0,1.9H77.9A1,1,0,1,0,77.9,93.1ZM48.3,10.7H47.6a5.2,5.2,0,0,1-3.7-2.4l7.9-.7h1.4A5.2,5.2,0,0,1,48.3,10.7ZM40.5,8.5h1.3a7.1,7.1,0,0,0,5.8,4.2h0.7a7.1,7.1,0,0,0,6.9-5.5h2.4a1.2,1.2,0,0,1,1,.3,1.2,1.2,0,0,1,.4,1l-0.5,9h-17l-2-7.2a1.3,1.3,0,0,1,.2-1,1.2,1.2,0,0,1,.9-0.5h0ZM37,31.4a3.7,3.7,0,0,1-3.7-3.7V22.8A3.7,3.7,0,0,1,37,19.2h26a3.7,3.7,0,0,1,3.7,3.7v4.9a3.7,3.7,0,0,1-3.7,3.7H37Zm22.6,1.9v6.9H40.4V33.3H59.7ZM72,88.8a4.3,4.3,0,0,1-4.3,4.3H32.3A4.3,4.3,0,0,1,28,88.8V48.8a6.7,6.7,0,0,1,6.7-6.7H65.2A6.7,6.7,0,0,1,72,48.8V88.8Z" fill="#000000" class="color000000 svgShape"></path>
  <path fill="#7f4145" d="M50.7,16.2a1.4,1.4,0,0,1-.5,1.1h-2a1.4,1.4,0,0,1-.5-1.1A1.4,1.4,0,1,1,50.7,16.2Z" class="color7f5c41 svgShape"></path>
  <path d="M9.5,93.1H6A1,1,0,1,0,6,95H9.5A1,1,0,1,0,9.5,93.1Z" fill="#000000" class="color000000 svgShape"></path>
  <path d="M69,60.5a6.7,6.7,0,0,0-2-4.3,9.9,9.9,0,0,0-7.5-3.1,14.5,14.5,0,0,0-9.9,4.4c-3.1-2.6-6.4-5-10.7-4.5A9.1,9.1,0,0,0,31,59.9h0V80.8a8.7,8.7,0,0,0,8.7,8.7H60.3A8.7,8.7,0,0,0,69,80.8V60.5ZM59.5,55a8,8,0,0,1,6.1,2.5A4.8,4.8,0,0,1,67,60.7c0,1.2-.8,2.1-2.4,2.6a11,11,0,0,1-7.6-.4,23.2,23.2,0,0,1-6-4.2A12.5,12.5,0,0,1,59.5,55Zm7.6,25.7a6.8,6.8,0,0,1-6.8,6.8H39.7a6.8,6.8,0,0,1-6.8-6.8V60.3A7.2,7.2,0,0,1,39.1,55c4-.5,7.1,2.2,10.4,5a26,26,0,0,0,6.8,4.7,13.9,13.9,0,0,0,5.1,1,11.7,11.7,0,0,0,3.8-.6,7.1,7.1,0,0,0,1.8-.9V80.8Z" fill="#000000" class="color000000 svgShape"></path>
  <circle cx="54.5" cy="14.2" r="1.1" fill="#7f4145" class="color7f5c41 svgShape"></circle>
  <circle cx="56.5" cy="11.2" r=".4" fill="#7f4145" class="color7f5c41 svgShape"></circle>
  <circle cx="44" cy="14.2" r=".8" fill="#7f4145" class="color7f5c41 svgShape"></circle>
  <circle cx="41.8" cy="11.7" r=".2" fill="#7f4145" class="color7f5c41 svgShape"></circle>
  <circle cx="40.8" cy="64.1" r="1.4" fill="#840008" class="color847700 svgShape"></circle>
  <circle cx="57.7" cy="71.6" r=".9" fill="#840008" class="color847700 svgShape"></circle>
  <circle cx="44.6" cy="73.4" r=".9" fill="#840008" class="color847700 svgShape"></circle>
  <circle cx="46.6" cy="75.2" r=".7" fill="#840008" class="color847700 svgShape"></circle>
  <circle cx="40.8" cy="83.9" r=".7" fill="#840008" class="color847700 svgShape"></circle>
  <circle cx="60" cy="81.5" r=".7" fill="#840008" class="color847700 svgShape"></circle>
</svg>
