<svg xmlns="http://www.w3.org/2000/svg" xml:space="preserve" width="512" height="512" id="sword">
  <path fill="#B75798" d="m165.316 346.685-13.32-13.32-87.705 87.705 13.319 13.321 13.319 13.319 87.706-87.706z"></path>
  <path fill="#FFD9BE" d="m98.834 442.717-6.384-23.168-23.167-6.383a7.705 7.705 0 0 0-7.493 1.979l-13.201 13.202a6.637 6.637 0 0 0 0 9.386l12.839 12.84 12.839 12.839a6.637 6.637 0 0 0 9.386 0l13.201-13.201a7.703 7.703 0 0 0 1.98-7.494z"></path>
  <path fill="#7F2467" d="m151.996 333.365-14.892 14.893 26.639 26.638 14.892-14.892-13.319-13.319zM139.978 398.667 113.34 372.03l6.906-6.907 26.639 26.64zM116.209 422.43 89.57 395.793l6.907-6.906 26.638 26.638z"></path>
  <path fill="#FFBF76" d="m53.969 443.112 7.459 7.46 12.839 12.839a6.637 6.637 0 0 0 9.386 0l13.201-13.201a7.703 7.703 0 0 0 1.979-7.493l-6.384-23.168-16.447 16.448c.001 0-8.621 9.733-22.033 7.115z"></path>
  <linearGradient id="a" x1="1851.067" x2="1851.067" y1="-972.162" y2="-502.26" gradientTransform="rotate(45.001 -102.458 -2148.218)" gradientUnits="userSpaceOnUse">
    <stop offset="0" stop-color="#FFF"></stop>
    <stop offset="1" stop-color="#C7DAFF"></stop>
  </linearGradient>
  <path fill="url(#a)" d="m457.373 46.666-26.05 1.916a22.02 22.02 0 0 0-13.957 6.391l-266.519 266.52 19.831 19.83 19.83 19.83 266.52-266.519a22.024 22.024 0 0 0 6.391-13.957l1.916-26.05c.333-4.528-3.435-8.294-7.962-7.961z"></path>
  <path fill="#C7DAFF" d="m223.397 248.941-72.55 72.551 19.831 19.83 113.163-113.163c-24.536 13.713-46.294 18.891-60.444 20.782zM375.885 137.868a153.773 153.773 0 0 0 1.714-3.467l-93.758 93.758c15.681-8.764 32.487-20.991 49.184-38.139l16.856-16.856c10.391-10.392 19.318-22.207 26.004-35.296zM457.373 46.666l-26.05 1.916a22.02 22.02 0 0 0-13.957 6.391l-27.133 27.133c-.014 20.159-5.896 38.207-12.635 52.295l85.578-85.578a7.398 7.398 0 0 0-5.803-2.157z"></path>
  <linearGradient id="b" x1="1865.09" x2="1865.09" y1="-603.303" y2="-970.095" gradientTransform="rotate(45.001 -102.458 -2148.218)" gradientUnits="userSpaceOnUse">
    <stop offset="0" stop-color="#819FEA"></stop>
    <stop offset="1" stop-color="#A7C1FC"></stop>
  </linearGradient>
  <path fill="url(#b)" d="M457.027 94.634c2.416-2.416 4.139-5.37 5.215-8.56-4.43.065-10.313.653-17.621 2.421-18.714 4.527-35.653 14.538-49.268 28.153L170.678 341.322l19.83 19.83L457.027 94.634z"></path>
  <path fill="#FFD9BE" d="M251.494 419.528c1.663-4.069 4.682-13.362 3.523-25.045-.302-3.04-3.5-4.808-6.221-3.417-5.36 2.74-13.884 5.289-20.431-1.258l-39.741-39.196-2.318-24.918-24.918-2.317-39.196-39.742c-6.547-6.547-3.999-15.07-1.258-20.43 1.391-2.721-.376-5.92-3.417-6.222-11.683-1.159-20.976 1.86-25.045 3.522-1.418.58-2.614 1.614-3.342 2.963-6.205 11.494-6.861 23.543-6.396 31.338.178 2.974 3.711 4.448 5.974 2.51 7.566-6.485 15.789-2.867 15.789-2.867l56.527 56.527 56.527 56.527s3.618 8.223-2.867 15.789c-1.938 2.262-.464 5.795 2.51 5.973 7.794.467 19.844-.19 31.337-6.395 1.349-.727 2.383-1.924 2.963-3.342z"></path>
  <path fill="#FFBF76" d="M217.551 407.504s3.618 8.223-2.867 15.789c-1.938 2.262-.464 5.795 2.51 5.973 7.794.467 19.844-.19 31.337-6.395 1.349-.729 2.383-1.925 2.962-3.343 1.663-4.069 4.682-13.362 3.523-25.045-.302-3.04-3.5-4.808-6.221-3.417-5.36 2.74-13.884 5.289-20.431-1.258l-39.741-39.196-2.318-24.918-25.283 25.282 56.529 56.528z"></path>
  <path fill="#FFFCFF" d="m127.111 317.064 14.082 14.082 14.05-14.05-13.998-14.165zM109.495 299.447l8.159 8.16 14.182-14.182-8.103-8.216z"></path>
</svg>
